<svg width="12" height="18" viewBox="0 0 27 38" fill="none" xmlns="http://www.w3.org/2000/svg">
    <path d="M0.424561 35.625C0.425334 34.9953 0.774836 34.3916 1.39623 33.9467L18.3386 21.7993C18.8514 21.4318 19.2582 20.9954 19.5357 20.515C19.8132 20.0347 19.9561 19.5199 19.9561 19C19.9561 18.4801 19.8132 17.9653 19.5357 17.485C19.2582 17.0047 18.8514 16.5683 18.3386 16.2007L1.41831 4.06126C0.814912 3.61333 0.48103 3.0134 0.488578 2.39068C0.496125 1.76796 0.844497 1.17228 1.45866 0.731937C2.07283 0.291593 2.90364 0.0418169 3.77217 0.0364057C4.6407 0.0309945 5.47744 0.270381 6.10219 0.703007L23.0224 12.8329C25.2975 14.4673 26.5753 16.6822 26.5753 18.9913C26.5753 21.3004 25.2975 23.5153 23.0224 25.1497L6.0801 37.297C5.6175 37.6289 5.02815 37.8551 4.38641 37.9471C3.74468 38.0391 3.07933 37.9927 2.47431 37.8138C1.86929 37.635 1.35173 37.3316 0.986931 36.9421C0.622131 36.5525 0.426443 36.0942 0.424561 35.625Z" fill="black" />
</svg>