<svg width="47" height="33" viewBox="0 0 47 33" fill="none" xmlns="http://www.w3.org/2000/svg">
<path d="M44.9565 14.4578H2.04344C0.914871 14.4578 0 15.3727 0 16.5012C0 17.6298 0.914871 18.5447 2.04344 18.5447H44.9565C46.085 18.5447 46.9999 17.6298 46.9999 16.5012C47 15.3727 46.085 14.4578 44.9565 14.4578Z" fill="black"/>
<path d="M2.04344 4.23957H44.9565C46.085 4.23957 46.9999 3.3247 46.9999 2.19612C46.9999 1.06755 46.085 0.152679 44.9565 0.152679H2.04344C0.914871 0.152679 0 1.06755 0 2.19612C0 3.3247 0.914871 4.23957 2.04344 4.23957Z" fill="black"/>
<path d="M44.9565 28.7611H2.04344C0.914871 28.7611 0 29.6761 0 30.8047C0 31.9332 0.914871 32.8481 2.04344 32.8481H44.9565C46.085 32.8481 46.9999 31.9332 46.9999 30.8047C47 29.6761 46.085 28.7611 44.9565 28.7611Z" fill="black"/>
</svg>
